<svg width="0" height="0" class="hidden">
  <symbol xmlns="http://www.w3.org/2000/svg" viewBox="0 0 512 512" id="sign-out-alt">
    <path d="M497 273L329 441c-15 15-41 4.5-41-17v-96H152c-13.3 0-24-10.7-24-24v-96c0-13.3 10.7-24 24-24h136V88c0-21.4 25.9-32 41-17l168 168c9.3 9.4 9.3 24.6 0 34zM192 436v-40c0-6.6-5.4-12-12-12H96c-17.7 0-32-14.3-32-32V160c0-17.7 14.3-32 32-32h84c6.6 0 12-5.4 12-12V76c0-6.6-5.4-12-12-12H96c-53 0-96 43-96 96v192c0 53 43 96 96 96h84c6.6 0 12-5.4 12-12z"></path>
  </symbol>
  <symbol xmlns="http://www.w3.org/2000/svg" viewBox="0 0 512 512" id="sign-in-alt">
    <path d="M416 448h-84c-6.6 0-12-5.4-12-12v-40c0-6.6 5.4-12 12-12h84c17.7 0 32-14.3 32-32V160c0-17.7-14.3-32-32-32h-84c-6.6 0-12-5.4-12-12V76c0-6.6 5.4-12 12-12h84c53 0 96 43 96 96v192c0 53-43 96-96 96zm-47-201L201 79c-15-15-41-4.5-41 17v96H24c-13.3 0-24 10.7-24 24v96c0 13.3 10.7 24 24 24h136v96c0 21.5 26 32 41 17l168-168c9.3-9.4 9.3-24.6 0-34z"></path>
  </symbol>
  <symbol xmlns="http://www.w3.org/2000/svg" viewBox="0 0 512 512" id="crop-simple-solid">
    <path d="M128 384H352V448H128C92.65 448 64 419.3 64 384V128H32C14.33 128 0 113.7 0 96C0 78.33 14.33 64 32 64H64V32C64 14.33 78.33 0 96 0C113.7 0 128 14.33 128 32V384zM384 128H160V64H384C419.3 64 448 92.65 448 128V384H480C497.7 384 512 398.3 512 416C512 433.7 497.7 448 480 448H448V480C448 497.7 433.7 512 416 512C398.3 512 384 497.7 384 480V128z"></path>
  </symbol>
  <symbol xmlns="http://www.w3.org/2000/svg" viewBox="0 0 512 512" id="upload-solid">
    <path d="M105.4 182.6c12.5 12.49 32.76 12.5 45.25 .001L224 109.3V352c0 17.67 14.33 32 32 32c17.67 0 32-14.33 32-32V109.3l73.38 73.38c12.49 12.49 32.75 12.49 45.25-.001c12.49-12.49 12.49-32.75 0-45.25l-128-128C272.4 3.125 264.2 0 256 0S239.6 3.125 233.4 9.375L105.4 137.4C92.88 149.9 92.88 170.1 105.4 182.6zM480 352h-160c0 35.35-28.65 64-64 64s-64-28.65-64-64H32c-17.67 0-32 14.33-32 32v96c0 17.67 14.33 32 32 32h448c17.67 0 32-14.33 32-32v-96C512 366.3 497.7 352 480 352zM432 456c-13.2 0-24-10.8-24-24c0-13.2 10.8-24 24-24s24 10.8 24 24C456 445.2 445.2 456 432 456z"></path>
  </symbol>
  <symbol xmlns="http://www.w3.org/2000/svg" viewBox="0 0 352 512" id="times">
    <path d="M242.72 256l100.07-100.07c12.28-12.28 12.28-32.19 0-44.48l-22.24-22.24c-12.28-12.28-32.19-12.28-44.48 0L176 189.28 75.93 89.21c-12.28-12.28-32.19-12.28-44.48 0L9.21 111.45c-12.28 12.28-12.28 32.19 0 44.48L109.28 256 9.21 356.07c-12.28 12.28-12.28 32.19 0 44.48l22.24 22.24c12.28 12.28 32.2 12.28 44.48 0L176 322.72l100.07 100.07c12.28 12.28 32.2 12.28 44.48 0l22.24-22.24c12.28-12.28 12.28-32.19 0-44.48L242.72 256z"></path>
  </symbol>
  <symbol xmlns="http://www.w3.org/2000/svg" viewBox="0 0 512 512" id="check">
    <path d="M173.898 439.404l-166.4-166.4c-9.997-9.997-9.997-26.206 0-36.204l36.203-36.204c9.997-9.998 26.207-9.998 36.204 0L192 312.69 432.095 72.596c9.997-9.997 26.207-9.997 36.204 0l36.203 36.204c9.997 9.997 9.997 26.206 0 36.204l-294.4 294.401c-9.998 9.997-26.207 9.997-36.204-.001z"></path>
  </symbol>
  <symbol xmlns="http://www.w3.org/2000/svg" viewBox="0 0 24 24" id="menu">
    <path d="M21.5 24h-19A2.503 2.503 0 010 21.5v-19C0 1.122 1.121 0 2.5 0h19C22.879 0 24 1.122 24 2.5v19c0 1.378-1.121 2.5-2.5 2.5zM2.5 1C1.673 1 1 1.673 1 2.5v19c0 .827.673 1.5 1.5 1.5h19c.827 0 1.5-.673 1.5-1.5v-19c0-.827-.673-1.5-1.5-1.5z"></path>
    <path d="M16.5 8h-9a.5.5 0 010-1h9a.5.5 0 010 1zm0 4.5h-9a.5.5 0 010-1h9a.5.5 0 010 1zm0 4.5h-9a.5.5 0 010-1h9a.5.5 0 010 1z"></path>
  </symbol>
  <symbol xmlns="http://www.w3.org/2000/svg" viewBox="0 0 51 51" id="chevron">
    <circle cx="25.5" cy="25.5" r="25.5" fill="#393939"></circle>
    <rect x="24.4" y="27.9" width="1.6" height="15.24" rx=".8" transform="rotate(-39 11.114 37.674)"></rect>
    <rect x="33.3" y="27.9" width="1.6" height="15.24" rx=".8" transform="rotate(37.3 44.444 24.605)"></rect>
  </symbol>
  <symbol id="iconos-06" xmlns="http://www.w3.org/2000/svg" viewBox="0 0 70 70">
    <defs></defs>
    <path d="M44.08,43.08a1,1,0,1,0,1,1A1,1,0,0,0,44.08,43.08Z"></path>
    <path d="M25.92,24.93a1,1,0,1,0,1,1A1,1,0,0,0,25.92,24.93Z"></path>
    <path d="M56.41,42.48A9.88,9.88,0,0,0,48,40.93l-6-6L48,29.06a10,10,0,1,0-4.44-16.7A9.86,9.86,0,0,0,40.92,22L39.84,23,35,27.91,29.06,22a9.8,9.8,0,0,0,.34-2.59A10,10,0,0,0,16.22,10a1,1,0,0,0-.65.72,1,1,0,0,0,.27.94L20,15.75v2L17.74,20h-2L11.6,15.85a1,1,0,0,0-1.65.38,9.94,9.94,0,0,0,3.64,11.3A9.84,9.84,0,0,0,22,29.07L27.9,35l-6,6a10,10,0,1,0,7.11,7L35,42l6,6a9.84,9.84,0,0,0,1.54,8.41,10,10,0,0,0,11.3,3.64,1,1,0,0,0,.39-1.65l-4.09-4.14v-2l2.18-2.18h2l4.15,4.09a1,1,0,0,0,.93.26,1,1,0,0,0,.71-.66A9.92,9.92,0,0,0,56.41,42.48Zm-15.16-18,1.51-1.5a1,1,0,0,0,.24-1,7.88,7.88,0,0,1,1.92-8.14A8,8,0,1,1,48,27a1,1,0,0,0-1,.23c-.49.49-3.29,3.3-6.34,6.34l-4.24-4.24C38.2,27.51,40,25.68,41.25,24.44ZM27.21,47A1,1,0,0,0,27,48a8,8,0,1,1-13.21-3.06A8,8,0,0,1,21.92,43a1,1,0,0,0,1-.24l6.39-6.37,4.24,4.24Zm31.32,4.52-3.16-3.11a1,1,0,0,0-.7-.28H51.85a1,1,0,0,0-.71.29l-2.77,2.76a1,1,0,0,0-.29.71v2.82a1,1,0,0,0,.29.7l3.11,3.15A8,8,0,0,1,43,48a1,1,0,0,0-.24-1L23,27.24A1,1,0,0,0,22,27a8,8,0,0,1-10.5-8.45l3.15,3.17a1,1,0,0,0,.71.3h2.82a1,1,0,0,0,.71-.29l2.86-2.86a1,1,0,0,0,.29-.71V15.33a1,1,0,0,0-.3-.71l-3.17-3.14a8,8,0,0,1,8.86,7.94A8.15,8.15,0,0,1,27,22a1,1,0,0,0,.24,1L47,42.77A1,1,0,0,0,48,43a8,8,0,0,1,10.5,8.47Z"></path>
    <path d="M29.45,28.05A1,1,0,0,0,28,29.46L40.55,42A1,1,0,0,0,42,40.55Z"></path>
  </symbol>
  <symbol id="iconos-07" xmlns="http://www.w3.org/2000/svg" viewBox="0 0 70 70">
    <defs></defs>
    <path d="M27.27,45.29H20.52l3.16-5.46,3.05,1.76a1.09,1.09,0,0,0,1.59-1.23L24.93,27.68a1.1,1.1,0,0,0-1.34-.77l-12.68,3.4a1.07,1.07,0,0,0-.8.91,1.08,1.08,0,0,0,.53,1.08l2.83,1.63L7.78,43.78a5.26,5.26,0,0,0,0,5.21L11,54.48a5.24,5.24,0,0,0,4.51,2.6H27.27A1.09,1.09,0,0,0,28.36,56V46.38a1.09,1.09,0,0,0-1.09-1.09ZM9.67,47.9a3,3,0,0,1,0-3L15.9,34.08a1.08,1.08,0,0,0-.4-1.49L14,31.73,23.1,29.3l2.44,9.08-1.72-1a1.14,1.14,0,0,0-.83-.11,1.12,1.12,0,0,0-.66.51l-9.22,16a3.28,3.28,0,0,1-.27-.38Zm16.51,7H15.46a3.42,3.42,0,0,1-.46,0l4.26-7.38h6.92Z"></path>
    <path d="M62.22,44.6,56.31,34.37A1.08,1.08,0,0,0,54.82,34l-8.32,4.8a1.09,1.09,0,0,0-.39,1.49l3.37,5.84H43.17V42.59a1.09,1.09,0,0,0-1.86-.77L32,51.11a1.1,1.1,0,0,0,0,1.54l9.29,9.28a1.07,1.07,0,0,0,.77.32,1,1,0,0,0,.41-.08,1.1,1.1,0,0,0,.68-1V57.9H54.54a5.23,5.23,0,0,0,4.51-2.61l3.17-5.48a5.26,5.26,0,0,0,0-5.21ZM48.54,40.12,55,36.41l5.36,9.28a4,4,0,0,1,.2.42H52ZM57.16,54.2a3,3,0,0,1-2.62,1.52H42.08A1.09,1.09,0,0,0,41,56.81v1.72l-6.66-6.65L41,45.22v2a1.09,1.09,0,0,0,1.09,1.09H60.53a3.36,3.36,0,0,1-.2.43Z"></path>
    <path d="M32.33,26.47l3.38-5.85,3.16,5.47-3,1.76a1.08,1.08,0,0,0-.54,1.09,1.1,1.1,0,0,0,.8.91l12.68,3.4a1.43,1.43,0,0,0,.29,0,1.09,1.09,0,0,0,1.05-.8l3.4-12.69a1.11,1.11,0,0,0-.39-1.15,1.09,1.09,0,0,0-1.21-.07L49.07,20.2l-1-1.74a1.09,1.09,0,1,0-1.89,1.09l1.55,2.68a1.09,1.09,0,0,0,1.49.4l1.49-.86-2.44,9.09-9.08-2.44,1.71-1a1.09,1.09,0,0,0,.4-1.49L32.07,10a2.49,2.49,0,0,1,.47,0h6.34a3,3,0,0,1,2.44,1.24,1.09,1.09,0,0,0,1.76-1.29,5.22,5.22,0,0,0-4.2-2.13H32.54A5.22,5.22,0,0,0,28,10.35l-5.9,10.23a1.09,1.09,0,0,0,.4,1.49l8.31,4.8a1.14,1.14,0,0,0,.83.11,1.09,1.09,0,0,0,.66-.51Zm-1.34-2-6.43-3.71,5.36-9.28a2.6,2.6,0,0,1,.27-.38l4.26,7.38Z"></path>
    <path d="M44.67,15.85a1.1,1.1,0,0,0,.77-.32,1.09,1.09,0,0,0,0-1.54,1.1,1.1,0,0,0-.77-.32,1.14,1.14,0,0,0-.77.32,1.09,1.09,0,0,0,0,1.54A1.14,1.14,0,0,0,44.67,15.85Z"></path>
  </symbol>
  <symbol id="iconos-08" xmlns="http://www.w3.org/2000/svg" viewBox="0 0 70 70">
    <defs></defs>
    <path d="M53.07,52.36H50.35v-17a1.1,1.1,0,0,0-1.1-1.1H46V25.76a1.1,1.1,0,0,0-1.1-1.1H31.16V18a1.06,1.06,0,0,0-.32-.78l-10-10a1.09,1.09,0,0,0-1.55,0L16.15,10.3a1.1,1.1,0,0,0,0,1.55l8.42,8.42V34.83a1.1,1.1,0,0,0,2.2,0v-15a1.12,1.12,0,0,0-.32-.78l-8-8L20,9.52,29,18.45V47.83a7.6,7.6,0,0,0-2.2,0V44.72a1.1,1.1,0,1,0-2.2,0v3.77A7.69,7.69,0,1,0,34.71,59H53.07a1.1,1.1,0,0,0,1.1-1.1v-4.4a1.1,1.1,0,0,0-1.1-1.1ZM36,26.86h2.86v2.26H36Zm-2.2,0v3.35a1.1,1.1,0,0,0,1.1,1.1H40a1.1,1.1,0,0,0,1.1-1.1V26.86h2.66v7.42H31.16V26.86Zm4.4,9.62h2.86v3H38.23Zm-7.07,0H36V40.6a1.1,1.1,0,0,0,1.1,1.1h5a1.1,1.1,0,0,0,1.1-1.1V36.48h4.87V52.36H34.92a7.82,7.82,0,0,0-3.76-3.87ZM27.87,60.93a5.49,5.49,0,1,1,5.49-5.49A5.5,5.5,0,0,1,27.87,60.93ZM52,56.76H35.45a8.2,8.2,0,0,0,.11-1.32,8.49,8.49,0,0,0-.05-.88H52Z"></path>
    <circle cx="25.67" cy="39.77" r="1.1"></circle>
    <path d="M27.87,52.14a3.3,3.3,0,1,0,3.3,3.3A3.3,3.3,0,0,0,27.87,52.14Zm0,4.4a1.1,1.1,0,1,1,1.1-1.1A1.1,1.1,0,0,1,27.87,56.54Z"></path>
  </symbol>
  <symbol id="facebook-16" xmlns="http://www.w3.org/2000/svg" viewBox="0 0 36 36">
    <defs></defs>
    <g id="_01._Facebook">
      <path id="Icon" d="M14.77,19.74H11.43c-.54,0-.71-.2-.71-.71V14.94c0-.54.2-.71.71-.71h3.34v-3a7.47,7.47,0,0,1,.92-3.82,5.54,5.54,0,0,1,3-2.5,7.64,7.64,0,0,1,2.6-.44h3.32c.47,0,.67.2.67.68V9c0,.47-.2.67-.67.67-.92,0-1.83,0-2.74,0a1.22,1.22,0,0,0-1.39,1.38c0,1,0,2,0,3H24.4c.54,0,.75.21.75.75V19c0,.54-.17.71-.75.71H20.48v11c0,.58-.17.78-.77.78H15.48c-.5,0-.71-.2-.71-.71v-11Z"></path>
    </g>
  </symbol>
  <symbol id="iconos-04" xmlns="http://www.w3.org/2000/svg" viewBox="0 0 70 70">
    <defs></defs>
    <path d="M57.54,32.6H40.28V12.46a1,1,0,0,0-1-1H12.46a1,1,0,0,0-1,1V57.54a1,1,0,0,0,1,1H37.88a1,1,0,0,0,1-1V54.66H50.35v2.88a1,1,0,0,0,1,1h3.35a1,1,0,0,0,1-1V54.66h.48a1,1,0,0,0,1-1V37.88h.48a1,1,0,0,0,1-1V33.56A1,1,0,0,0,57.54,32.6Zm-32.61,24H13.42V48.43H24.93Zm0-10.07H13.42V13.42H24.93Zm8.63,10.07H26.85V13.42H38.36V32.6h-7.2a1,1,0,0,0-1,1v3.36a1,1,0,0,0,1,1h1V53.7a1,1,0,0,0,1,1h.48Zm3.36,0H35.48V54.66h1.44Zm16.78,0H52.27V54.66H53.7Zm1.44-3.84H34V46h21.1Zm0-8.63H34V37.88h21.1ZM56.58,36H32.12V34.52H56.58Z"></path>
    <rect x="43.15" y="39.8" width="2.88" height="1.92"></rect>
    <rect x="43.15" y="47.95" width="2.88" height="1.92"></rect>
    <rect x="28.77" y="26.85" width="1.92" height="3.84"></rect>
    <rect x="21.09" y="26.85" width="1.92" height="3.84"></rect>
    <rect x="17.73" y="51.31" width="2.88" height="1.92"></rect>
  </symbol>
  <symbol id="iconos-05" xmlns="http://www.w3.org/2000/svg" viewBox="0 0 70 70">
    <defs></defs>
    <path d="M20.6,43.55A5.4,5.4,0,1,0,26,49,5.4,5.4,0,0,0,20.6,43.55Zm0,9A3.6,3.6,0,1,1,24.2,49,3.6,3.6,0,0,1,20.6,52.55Z"></path>
    <path d="M51.2,43.55A5.4,5.4,0,1,0,56.6,49,5.4,5.4,0,0,0,51.2,43.55Zm0,9A3.6,3.6,0,1,1,54.8,49,3.6,3.6,0,0,1,51.2,52.55Z"></path>
    <path d="M61.86,38.56,53.76,26a.92.92,0,0,0-.76-.41H43.1a.9.9,0,0,0-.9.9V49a.9.9,0,0,0,.9.9h3.6v-1.8H44V27.35h8.51l7.69,12v8.74H55.7v1.8h5.4A.9.9,0,0,0,62,49v-9.9A1,1,0,0,0,61.86,38.56Z"></path>
    <path d="M47.6,37.25V31h7.2v-1.8H46.7a.9.9,0,0,0-.9.9v8.1a.9.9,0,0,0,.9.9H60.2v-1.8Z"></path>
    <path d="M43.1,19.25H8.9a.9.9,0,0,0-.9.9V49a.9.9,0,0,0,.9.9h7.2v-1.8H9.8v-27H42.2v27H25.1v1.8h18A.9.9,0,0,0,44,49V20.15A.9.9,0,0,0,43.1,19.25Z"></path>
    <rect x="8.9" y="44.45" width="5.4" height="1.8"></rect>
    <rect x="26.9" y="44.45" width="15.3" height="1.8"></rect>
    <rect x="57.5" y="44.45" width="3.6" height="1.8"></rect>
    <rect x="11.6" y="22.85" width="31.5" height="1.8"></rect>
    <rect x="19.7" y="48.05" width="1.8" height="1.8"></rect>
    <rect x="50.3" y="48.05" width="1.8" height="1.8"></rect>
    <rect x="11.6" y="15.65" width="12.6" height="1.8"></rect>
    <rect x="8" y="15.65" width="1.8" height="1.8"></rect>
  </symbol>
</svg>